<svg width="127" height="55" viewBox="0 0 127 55" fill="none" xmlns="http://www.w3.org/2000/svg">
<g filter="url(#filter0_dd_1_5536)">
<rect x="4.5" y="3.42871" width="46" height="46" rx="23" stroke="#FCD34D" stroke-width="2"/>
<path d="M34 26.4287H21.5H34ZM21.5 26.4287L27.5 20.4287L21.5 26.4287ZM21.5 26.4287L27.5 32.4287L21.5 26.4287Z" fill="#FCD34D"/>
<path d="M34 26.4287H21.5M21.5 26.4287L27.5 20.4287M21.5 26.4287L27.5 32.4287" stroke="#FCD34D" stroke-width="1.5" stroke-linecap="round" stroke-linejoin="round"/>
</g>
<g filter="url(#filter1_dd_1_5536)">
<rect x="76.5" y="3.42871" width="46" height="46" rx="23" stroke="#FCD34D" stroke-width="2"/>
<path d="M93.5 26.4287H106H93.5ZM106 26.4287L100 20.4287L106 26.4287ZM106 26.4287L100 32.4287L106 26.4287Z" fill="#FCD34D"/>
<path d="M93.5 26.4287H106M106 26.4287L100 20.4287M106 26.4287L100 32.4287" stroke="#FCD34D" stroke-width="1.5" stroke-linecap="round" stroke-linejoin="round"/>
</g>
<defs>
<filter id="filter0_dd_1_5536" x="0.5" y="0.428711" width="54" height="54" filterUnits="userSpaceOnUse" color-interpolation-filters="sRGB">
<feFlood flood-opacity="0" result="BackgroundImageFix"/>
<feColorMatrix in="SourceAlpha" type="matrix" values="0 0 0 0 0 0 0 0 0 0 0 0 0 0 0 0 0 0 127 0" result="hardAlpha"/>
<feOffset/>
<feGaussianBlur stdDeviation="1"/>
<feColorMatrix type="matrix" values="0 0 0 0 0 0 0 0 0 0 0 0 0 0 0 0 0 0 0.07 0"/>
<feBlend mode="normal" in2="BackgroundImageFix" result="effect1_dropShadow_1_5536"/>
<feColorMatrix in="SourceAlpha" type="matrix" values="0 0 0 0 0 0 0 0 0 0 0 0 0 0 0 0 0 0 127 0" result="hardAlpha"/>
<feOffset dy="1"/>
<feGaussianBlur stdDeviation="1.5"/>
<feColorMatrix type="matrix" values="0 0 0 0 0 0 0 0 0 0 0 0 0 0 0 0 0 0 0.1 0"/>
<feBlend mode="normal" in2="effect1_dropShadow_1_5536" result="effect2_dropShadow_1_5536"/>
<feBlend mode="normal" in="SourceGraphic" in2="effect2_dropShadow_1_5536" result="shape"/>
</filter>
<filter id="filter1_dd_1_5536" x="72.5" y="0.428711" width="54" height="54" filterUnits="userSpaceOnUse" color-interpolation-filters="sRGB">
<feFlood flood-opacity="0" result="BackgroundImageFix"/>
<feColorMatrix in="SourceAlpha" type="matrix" values="0 0 0 0 0 0 0 0 0 0 0 0 0 0 0 0 0 0 127 0" result="hardAlpha"/>
<feOffset/>
<feGaussianBlur stdDeviation="1"/>
<feColorMatrix type="matrix" values="0 0 0 0 0 0 0 0 0 0 0 0 0 0 0 0 0 0 0.07 0"/>
<feBlend mode="normal" in2="BackgroundImageFix" result="effect1_dropShadow_1_5536"/>
<feColorMatrix in="SourceAlpha" type="matrix" values="0 0 0 0 0 0 0 0 0 0 0 0 0 0 0 0 0 0 127 0" result="hardAlpha"/>
<feOffset dy="1"/>
<feGaussianBlur stdDeviation="1.5"/>
<feColorMatrix type="matrix" values="0 0 0 0 0 0 0 0 0 0 0 0 0 0 0 0 0 0 0.1 0"/>
<feBlend mode="normal" in2="effect1_dropShadow_1_5536" result="effect2_dropShadow_1_5536"/>
<feBlend mode="normal" in="SourceGraphic" in2="effect2_dropShadow_1_5536" result="shape"/>
</filter>
</defs>
</svg>
