<svg width="375" height="397" viewBox="0 0 375 397" fill="none" xmlns="http://www.w3.org/2000/svg">
<ellipse cx="-30.7869" cy="125.108" rx="124.932" ry="125.108" fill="#F59E0B"/>
<ellipse cx="441.841" cy="178.955" rx="104.872" ry="105.048" fill="#7E22CE"/>
<g filter="url(#filter0_dd_25_38)">
<g clip-path="url(#clip0_25_38)">
<rect x="16" y="111" width="358" height="246" rx="20" fill="white"/>
<path d="M36.9999 135.694C34.6987 135.694 32.8333 133.828 32.8333 131.527C32.8333 129.226 34.6987 127.36 36.9999 127.36C39.3012 127.36 41.1666 129.226 41.1666 131.527C41.1666 133.828 39.3012 135.694 36.9999 135.694Z" fill="#E11D48"/>
<path d="M51.9999 135.694C49.6987 135.694 47.8333 133.828 47.8333 131.527C47.8333 129.226 49.6987 127.36 51.9999 127.36C54.3012 127.36 56.1666 129.226 56.1666 131.527C56.1666 133.828 54.3012 135.694 51.9999 135.694Z" fill="#FBBF24"/>
<path d="M66.9999 135.694C64.6987 135.694 62.8333 133.828 62.8333 131.527C62.8333 129.226 64.6987 127.36 66.9999 127.36C69.3012 127.36 71.1666 129.226 71.1666 131.527C71.1666 133.828 69.3012 135.694 66.9999 135.694Z" fill="#22C55E"/>
<path d="M315.757 131.5L320.707 136.45C320.803 136.542 320.879 136.653 320.931 136.775C320.984 136.897 321.011 137.028 321.012 137.161C321.013 137.293 320.988 137.425 320.938 137.548C320.888 137.671 320.813 137.783 320.719 137.876C320.626 137.97 320.514 138.045 320.391 138.095C320.268 138.145 320.136 138.17 320.004 138.169C319.871 138.168 319.74 138.141 319.618 138.088C319.496 138.036 319.385 137.96 319.293 137.864L313.636 132.207C313.449 132.02 313.343 131.765 313.343 131.5C313.343 131.235 313.449 130.981 313.636 130.793L319.293 125.136C319.482 124.954 319.734 124.853 319.996 124.855C320.259 124.858 320.509 124.963 320.695 125.148C320.88 125.334 320.985 125.584 320.988 125.847C320.99 126.109 320.889 126.361 320.707 126.55L315.757 131.5Z" fill="#94A3B8"/>
<path d="M347.314 131.571L342.364 126.621C342.182 126.432 342.081 126.18 342.083 125.918C342.086 125.655 342.191 125.405 342.376 125.219C342.562 125.034 342.812 124.929 343.075 124.926C343.337 124.924 343.589 125.025 343.778 125.207L349.435 130.864C349.622 131.052 349.728 131.306 349.728 131.571C349.728 131.836 349.622 132.09 349.435 132.278L343.778 137.935C343.589 138.117 343.337 138.218 343.075 138.216C342.812 138.213 342.562 138.108 342.376 137.923C342.191 137.737 342.086 137.487 342.083 137.224C342.081 136.962 342.182 136.71 342.364 136.521L347.314 131.571Z" fill="#475569"/>
<rect width="358" height="205" transform="translate(16 152)" fill="#E0F2FE"/>
<path d="M16 152.273H75.9665V357H16V152.273Z" fill="#BFDBFE"/>
<path d="M23.196 171.68C23.196 169.869 24.8069 168.4 26.794 168.4H65.1725C67.1597 168.4 68.7705 169.869 68.7705 171.68C68.7705 173.492 67.1597 174.96 65.1725 174.96H26.794C24.8069 174.96 23.196 173.492 23.196 171.68Z" fill="#93C5FD"/>
<path d="M37.5879 194.64C37.5879 193.734 38.3933 193 39.3869 193H69.3701C70.3637 193 71.1691 193.734 71.1691 194.64C71.1691 195.546 70.3637 196.28 69.3701 196.28H39.3869C38.3933 196.28 37.5879 195.546 37.5879 194.64Z" fill="white"/>
<path d="M37.5879 212.133C37.5879 211.228 38.3933 210.493 39.3869 210.493H60.0753C61.0689 210.493 61.8743 211.228 61.8743 212.133C61.8743 213.039 61.0689 213.773 60.0753 213.773H39.3869C38.3933 213.773 37.5879 213.039 37.5879 212.133Z" fill="white"/>
<path d="M37.5879 229.627C37.5879 228.721 38.3933 227.987 39.3869 227.987H65.1725C66.166 227.987 66.9715 228.721 66.9715 229.627C66.9715 230.532 66.166 231.267 65.1725 231.267H39.3869C38.3933 231.267 37.5879 230.532 37.5879 229.627Z" fill="white"/>
<path fill-rule="evenodd" clip-rule="evenodd" d="M27.9934 198.193C30.1461 198.193 31.8912 196.603 31.8912 194.64C31.8912 192.678 30.1461 191.087 27.9934 191.087C25.8407 191.087 24.0955 192.678 24.0955 194.64C24.0955 196.603 25.8407 198.193 27.9934 198.193ZM27.9934 199.013C30.6429 199.013 32.7907 197.055 32.7907 194.64C32.7907 192.225 30.6429 190.267 27.9934 190.267C25.3439 190.267 23.196 192.225 23.196 194.64C23.196 197.055 25.3439 199.013 27.9934 199.013Z" fill="#93C5FD"/>
<path d="M95.1558 171.68C95.1558 170.472 96.2297 169.493 97.5544 169.493H132.335C133.66 169.493 134.734 170.472 134.734 171.68C134.734 172.888 133.66 173.867 132.335 173.867H97.5544C96.2297 173.867 95.1558 172.888 95.1558 171.68Z" fill="#BFDBFE"/>
<path fill-rule="evenodd" clip-rule="evenodd" d="M158.87 259.847C158.888 258.287 160.246 256.96 161.993 256.96C163.064 256.96 163.853 257.444 164.356 257.899C164.496 258.026 164.616 258.152 164.717 258.269C164.818 258.152 164.938 258.026 165.078 257.899C165.581 257.444 166.369 256.96 167.441 256.96C169.187 256.96 170.546 258.287 170.564 259.847V259.847C170.597 262.887 167.917 264.991 165.223 266.658C165.074 266.751 164.897 266.8 164.717 266.8C164.536 266.8 164.36 266.751 164.211 266.658C161.517 264.991 158.837 262.887 158.87 259.847L158.87 259.847ZM165.119 259.194C165.119 259.194 165.119 259.194 165.119 259.193C165.12 259.192 165.122 259.189 165.124 259.185C165.129 259.176 165.138 259.162 165.149 259.143C165.173 259.106 165.21 259.05 165.26 258.982C165.36 258.845 165.511 258.662 165.712 258.481C166.114 258.116 166.688 257.78 167.441 257.78C168.661 257.78 169.651 258.715 169.664 259.855C169.692 262.417 167.435 264.298 164.717 265.98L164.717 265.98L164.716 265.98C161.999 264.298 159.741 262.417 159.77 259.855" fill="white"/>
<path d="M95.1558 261.88C95.1558 260.672 96.2297 259.693 97.5544 259.693H113.745C115.07 259.693 116.144 260.672 116.144 261.88C116.144 263.088 115.07 264.067 113.745 264.067H97.5544C96.2297 264.067 95.1558 263.088 95.1558 261.88Z" fill="#BFDBFE"/>
<path d="M120.941 261.88C120.941 260.672 122.015 259.693 123.34 259.693H150.325C151.65 259.693 152.724 260.672 152.724 261.88C152.724 263.088 151.65 264.067 150.325 264.067H123.34C122.015 264.067 120.941 263.088 120.941 261.88Z" fill="#BFDBFE"/>
<path d="M95.1558 283.2C95.1558 282.294 95.9612 281.56 96.9548 281.56H122.141C123.134 281.56 123.94 282.294 123.94 283.2C123.94 284.106 123.134 284.84 122.141 284.84H96.9548C95.9612 284.84 95.1558 284.106 95.1558 283.2Z" fill="white"/>
<path d="M95.1558 290.853C95.1558 289.948 95.9612 289.213 96.9548 289.213H135.633C136.627 289.213 137.432 289.948 137.432 290.853C137.432 291.759 136.627 292.493 135.633 292.493H96.9548C95.9612 292.493 95.1558 291.759 95.1558 290.853Z" fill="white"/>
<path d="M128.737 283.2C128.737 282.294 129.542 281.56 130.536 281.56H160.519C161.513 281.56 162.318 282.294 162.318 283.2C162.318 284.106 161.513 284.84 160.519 284.84H130.536C129.542 284.84 128.737 284.106 128.737 283.2Z" fill="white"/>
<path d="M95.1558 193C95.1558 192.094 95.9612 191.36 96.9548 191.36H122.141C123.134 191.36 123.94 192.094 123.94 193C123.94 193.906 123.134 194.64 122.141 194.64H96.9548C95.9612 194.64 95.1558 193.906 95.1558 193Z" fill="white"/>
<path d="M95.1558 200.653C95.1558 199.748 95.9612 199.013 96.9548 199.013H159.02C160.014 199.013 160.819 199.748 160.819 200.653C160.819 201.559 160.014 202.293 159.02 202.293H96.9548C95.9612 202.293 95.1558 201.559 95.1558 200.653Z" fill="white"/>
<path d="M128.737 193C128.737 192.094 129.542 191.36 130.536 191.36H198.898C199.891 191.36 200.697 192.094 200.697 193C200.697 193.906 199.891 194.64 198.898 194.64H130.536C129.542 194.64 128.737 193.906 128.737 193Z" fill="white"/>
<path fill-rule="evenodd" clip-rule="evenodd" d="M32.191 208.58H24.3953V215.687H32.191V208.58ZM23.4958 207.76V216.507H33.0905V207.76H23.4958Z" fill="#60A5FA"/>
<g clip-path="url(#clip1_25_38)">
<rect x="223.784" y="171.68" width="59.9665" height="74.8933" rx="10" fill="white"/>
<path d="M263.729 246.638C263.729 265.59 247.016 280.953 226.399 280.953C205.783 280.953 189.069 265.59 189.069 246.638C189.069 227.687 205.783 212.323 226.399 212.323C247.016 212.323 263.729 227.687 263.729 246.638Z" fill="#FBBF24"/>
<path fill-rule="evenodd" clip-rule="evenodd" d="M292.15 200.923L272.645 183.141L254.863 202.646L274.369 220.428L292.15 200.923ZM272.57 181.52L253.242 202.721L274.444 222.049L293.771 200.848L272.57 181.52Z" fill="#BFDBFE"/>
</g>
<path d="M28.2932 225.8L33.0905 233.375H23.4958L28.2932 225.8Z" fill="#93C5FD"/>
<rect x="293.345" y="171.68" width="59.9665" height="55.2133" rx="10" fill="white"/>
<path fill-rule="evenodd" clip-rule="evenodd" d="M320.32 212.849C326.299 212.849 331.104 208.471 331.104 203.117C331.104 197.763 326.299 193.386 320.32 193.386C314.342 193.386 309.536 197.763 309.536 203.117C309.536 208.471 314.342 212.849 320.32 212.849ZM320.32 215.582C327.932 215.582 334.103 210.001 334.103 203.117C334.103 196.233 327.932 190.652 320.32 190.652C312.708 190.652 306.538 196.233 306.538 203.117C306.538 210.001 312.708 215.582 320.32 215.582Z" fill="#BFDBFE"/>
<path d="M326.584 199.172L329.72 184.852L340.553 194.728L326.584 199.172Z" fill="#FBBF24"/>
<g clip-path="url(#clip2_25_38)">
<rect x="223.784" y="255.32" width="59.9665" height="83.64" rx="10" fill="white"/>
<path fill-rule="evenodd" clip-rule="evenodd" d="M280.003 349.62C296.81 349.62 310.436 337.199 310.436 321.877C310.436 306.554 296.81 294.133 280.003 294.133C263.195 294.133 249.57 306.554 249.57 321.877C249.57 337.199 263.195 349.62 280.003 349.62ZM280.003 352.353C298.466 352.353 313.434 338.708 313.434 321.877C313.434 305.045 298.466 291.4 280.003 291.4C261.539 291.4 246.571 305.045 246.571 321.877C246.571 338.708 261.539 352.353 280.003 352.353Z" fill="#FBBF24"/>
<path d="M255.266 280.255C255.266 285.422 250.635 289.61 244.922 289.61C239.209 289.61 234.578 285.422 234.578 280.255C234.578 275.088 239.209 270.9 244.922 270.9C250.635 270.9 255.266 275.088 255.266 280.255Z" fill="#BFDBFE"/>
<path fill-rule="evenodd" clip-rule="evenodd" d="M244.922 288.79C250.145 288.79 254.367 284.963 254.367 280.255C254.367 275.547 250.145 271.72 244.922 271.72C239.699 271.72 235.477 275.547 235.477 280.255C235.477 284.963 239.699 288.79 244.922 288.79ZM244.922 289.61C250.635 289.61 255.266 285.422 255.266 280.255C255.266 275.088 250.635 270.9 244.922 270.9C239.209 270.9 234.578 275.088 234.578 280.255C234.578 285.422 239.209 289.61 244.922 289.61Z" fill="#BFDBFE"/>
</g>
<g clip-path="url(#clip3_25_38)">
<rect x="293.345" y="235.64" width="59.9665" height="93.48" rx="10" fill="white"/>
<path d="M367.104 303.017C367.104 309.734 361.197 315.18 353.911 315.18C346.625 315.18 340.719 309.734 340.719 303.017C340.719 296.299 346.625 290.853 353.911 290.853C361.197 290.853 367.104 296.299 367.104 303.017Z" fill="white"/>
<path fill-rule="evenodd" clip-rule="evenodd" d="M353.911 314.36C360.691 314.36 366.204 309.29 366.204 303.017C366.204 296.743 360.691 291.673 353.911 291.673C347.131 291.673 341.618 296.743 341.618 303.017C341.618 309.29 347.131 314.36 353.911 314.36ZM353.911 315.18C361.197 315.18 367.104 309.734 367.104 303.017C367.104 296.299 361.197 290.853 353.911 290.853C346.625 290.853 340.719 296.299 340.719 303.017C340.719 309.734 346.625 315.18 353.911 315.18Z" fill="#BFDBFE"/>
<path d="M343.117 268.577C343.117 277.559 335.197 284.84 325.427 284.84C315.657 284.84 307.737 277.559 307.737 268.577C307.737 259.595 315.657 252.313 325.427 252.313C335.197 252.313 343.117 259.595 343.117 268.577Z" fill="#BFDBFE"/>
<path d="M304.439 299.873L305.285 302.092L307.861 302.14L305.807 303.559L306.554 305.807L304.439 304.465L302.324 305.807L303.07 303.559L301.017 302.14L303.593 302.092L304.439 299.873Z" fill="#FBBF24"/>
<path d="M316.732 299.873L317.578 302.092L320.154 302.14L318.101 303.559L318.847 305.807L316.732 304.465L314.617 305.807L315.363 303.559L313.31 302.14L315.886 302.092L316.732 299.873Z" fill="#FBBF24"/>
<path d="M329.025 299.873L329.871 302.092L332.447 302.14L330.394 303.559L331.14 305.807L329.025 304.465L326.91 305.807L327.656 303.559L325.603 302.14L328.179 302.092L329.025 299.873Z" fill="#FBBF24"/>
<path d="M341.318 299.873L342.164 302.092L344.74 302.14L342.687 303.559L343.433 305.807L341.318 304.465L339.203 305.807L339.949 303.559L337.896 302.14L340.472 302.092L341.318 299.873Z" fill="#FBBF24"/>
<path d="M353.611 299.873L354.457 302.092L357.033 302.14L354.98 303.559L355.726 305.807L353.611 304.465L351.497 305.807L352.243 303.559L350.189 302.14L352.765 302.092L353.611 299.873Z" fill="#FBBF24"/>
</g>
</g>
<rect x="18.5" y="113.5" width="353" height="241" rx="17.5" stroke="white" stroke-width="5"/>
</g>
<defs>
<filter id="filter0_dd_25_38" x="-4" y="101" width="398" height="296" filterUnits="userSpaceOnUse" color-interpolation-filters="sRGB">
<feFlood flood-opacity="0" result="BackgroundImageFix"/>
<feColorMatrix in="SourceAlpha" type="matrix" values="0 0 0 0 0 0 0 0 0 0 0 0 0 0 0 0 0 0 127 0" result="hardAlpha"/>
<feOffset/>
<feGaussianBlur stdDeviation="5"/>
<feColorMatrix type="matrix" values="0 0 0 0 0 0 0 0 0 0 0 0 0 0 0 0 0 0 0.07 0"/>
<feBlend mode="normal" in2="BackgroundImageFix" result="effect1_dropShadow_25_38"/>
<feColorMatrix in="SourceAlpha" type="matrix" values="0 0 0 0 0 0 0 0 0 0 0 0 0 0 0 0 0 0 127 0" result="hardAlpha"/>
<feMorphology radius="5" operator="erode" in="SourceAlpha" result="effect2_dropShadow_25_38"/>
<feOffset dy="20"/>
<feGaussianBlur stdDeviation="12.5"/>
<feColorMatrix type="matrix" values="0 0 0 0 0 0 0 0 0 0 0 0 0 0 0 0 0 0 0.1 0"/>
<feBlend mode="normal" in2="effect1_dropShadow_25_38" result="effect2_dropShadow_25_38"/>
<feBlend mode="normal" in="SourceGraphic" in2="effect2_dropShadow_25_38" result="shape"/>
</filter>
<clipPath id="clip0_25_38">
<rect x="16" y="111" width="358" height="246" rx="20" fill="white"/>
</clipPath>
<clipPath id="clip1_25_38">
<rect x="223.784" y="171.68" width="59.9665" height="74.8933" rx="10" fill="white"/>
</clipPath>
<clipPath id="clip2_25_38">
<rect x="223.784" y="255.32" width="59.9665" height="83.64" rx="10" fill="white"/>
</clipPath>
<clipPath id="clip3_25_38">
<rect x="293.345" y="235.64" width="59.9665" height="93.48" rx="10" fill="white"/>
</clipPath>
</defs>
</svg>
