<svg width="2166" height="1052" viewBox="0 0 2166 1052" fill="none" xmlns="http://www.w3.org/2000/svg">
<ellipse cx="355" cy="355.5" rx="355" ry="355.5" fill="#F59E0B"/>
<ellipse cx="1868" cy="501.5" rx="298" ry="298.5" fill="#7E22CE"/>
<g filter="url(#filter0_dd_76_37)">
<g clip-path="url(#clip0_76_37)">
<rect x="323" y="158" width="1520" height="854" rx="20" fill="white"/>
<path d="M344 182.694C341.699 182.694 339.833 180.828 339.833 178.527C339.833 176.226 341.699 174.36 344 174.36C346.301 174.36 348.167 176.226 348.167 178.527C348.167 180.828 346.301 182.694 344 182.694Z" fill="#E11D48"/>
<path d="M359 182.694C356.699 182.694 354.833 180.828 354.833 178.527C354.833 176.226 356.699 174.36 359 174.36C361.301 174.36 363.167 176.226 363.167 178.527C363.167 180.828 361.301 182.694 359 182.694Z" fill="#FBBF24"/>
<path d="M374 182.694C371.699 182.694 369.833 180.828 369.833 178.527C369.833 176.226 371.699 174.36 374 174.36C376.301 174.36 378.167 176.226 378.167 178.527C378.167 180.828 376.301 182.694 374 182.694Z" fill="#22C55E"/>
<path d="M1784.76 178.5L1789.71 183.45C1789.8 183.542 1789.88 183.653 1789.93 183.775C1789.98 183.897 1790.01 184.028 1790.01 184.161C1790.01 184.293 1789.99 184.425 1789.94 184.548C1789.89 184.671 1789.81 184.783 1789.72 184.876C1789.63 184.97 1789.51 185.045 1789.39 185.095C1789.27 185.145 1789.14 185.17 1789 185.169C1788.87 185.168 1788.74 185.141 1788.62 185.088C1788.5 185.036 1788.39 184.96 1788.29 184.864L1782.64 179.207C1782.45 179.02 1782.34 178.765 1782.34 178.5C1782.34 178.235 1782.45 177.981 1782.64 177.793L1788.29 172.136C1788.48 171.954 1788.73 171.853 1789 171.855C1789.26 171.858 1789.51 171.963 1789.69 172.148C1789.88 172.334 1789.99 172.584 1789.99 172.847C1789.99 173.109 1789.89 173.361 1789.71 173.55L1784.76 178.5Z" fill="#94A3B8"/>
<path d="M1816.31 178.571L1811.36 173.621C1811.18 173.432 1811.08 173.18 1811.08 172.918C1811.09 172.655 1811.19 172.405 1811.38 172.219C1811.56 172.034 1811.81 171.929 1812.07 171.926C1812.34 171.924 1812.59 172.025 1812.78 172.207L1818.44 177.864C1818.62 178.052 1818.73 178.306 1818.73 178.571C1818.73 178.836 1818.62 179.09 1818.44 179.278L1812.78 184.935C1812.59 185.117 1812.34 185.218 1812.07 185.216C1811.81 185.213 1811.56 185.108 1811.38 184.923C1811.19 184.737 1811.09 184.487 1811.08 184.224C1811.08 183.962 1811.18 183.71 1811.36 183.521L1816.31 178.571V178.571Z" fill="#475569"/>
<rect x="742.399" y="166" width="683.867" height="25" rx="5" fill="#F1F5F9"/>
<path d="M1044.26 181.875L1045.89 176.66H1046.61L1046.47 177.697L1044.81 183H1044.11L1044.26 181.875ZM1043.17 176.66L1044.56 181.934L1044.66 183H1043.92L1042.08 176.66H1043.17ZM1048.17 181.893L1049.49 176.66H1050.57L1048.73 183H1048L1048.17 181.893ZM1046.77 176.66L1048.36 181.787L1048.54 183H1047.85L1046.14 177.686L1046 176.66H1046.77ZM1053.29 181.875L1054.92 176.66H1055.63L1055.49 177.697L1053.83 183H1053.13L1053.29 181.875ZM1052.19 176.66L1053.58 181.934L1053.68 183H1052.95L1051.11 176.66H1052.19ZM1057.19 181.893L1058.51 176.66H1059.59L1057.75 183H1057.03L1057.19 181.893ZM1055.79 176.66L1057.38 181.787L1057.56 183H1056.87L1055.17 177.686L1055.03 176.66H1055.79ZM1062.31 181.875L1063.94 176.66H1064.65L1064.51 177.697L1062.86 183H1062.16L1062.31 181.875ZM1061.21 176.66L1062.6 181.934L1062.7 183H1061.97L1060.13 176.66H1061.21ZM1066.21 181.893L1067.54 176.66H1068.62L1066.78 183H1066.05L1066.21 181.893ZM1064.81 176.66L1066.41 181.787L1066.59 183H1065.9L1064.19 177.686L1064.05 176.66H1064.81ZM1069.02 182.426C1069.02 182.242 1069.08 182.088 1069.19 181.963C1069.31 181.834 1069.47 181.77 1069.69 181.77C1069.91 181.77 1070.08 181.834 1070.19 181.963C1070.31 182.088 1070.37 182.242 1070.37 182.426C1070.37 182.605 1070.31 182.758 1070.19 182.883C1070.08 183.008 1069.91 183.07 1069.69 183.07C1069.47 183.07 1069.31 183.008 1069.19 182.883C1069.08 182.758 1069.02 182.605 1069.02 182.426ZM1075.86 181.318C1075.86 181.162 1075.82 181.018 1075.75 180.885C1075.69 180.748 1075.55 180.625 1075.34 180.516C1075.13 180.402 1074.82 180.305 1074.4 180.223C1074.05 180.148 1073.73 180.061 1073.44 179.959C1073.16 179.857 1072.92 179.734 1072.72 179.59C1072.53 179.445 1072.38 179.275 1072.27 179.08C1072.17 178.885 1072.11 178.656 1072.11 178.395C1072.11 178.145 1072.17 177.908 1072.28 177.686C1072.39 177.463 1072.55 177.266 1072.75 177.094C1072.96 176.922 1073.21 176.787 1073.5 176.689C1073.79 176.592 1074.11 176.543 1074.46 176.543C1074.97 176.543 1075.4 176.633 1075.76 176.812C1076.12 176.992 1076.4 177.232 1076.59 177.533C1076.78 177.83 1076.88 178.16 1076.88 178.523H1075.79C1075.79 178.348 1075.74 178.178 1075.63 178.014C1075.53 177.846 1075.38 177.707 1075.18 177.598C1074.99 177.488 1074.75 177.434 1074.46 177.434C1074.16 177.434 1073.92 177.48 1073.73 177.574C1073.55 177.664 1073.41 177.779 1073.33 177.92C1073.24 178.061 1073.2 178.209 1073.2 178.365C1073.2 178.482 1073.22 178.588 1073.26 178.682C1073.3 178.771 1073.38 178.855 1073.48 178.934C1073.59 179.008 1073.74 179.078 1073.93 179.145C1074.12 179.211 1074.37 179.277 1074.66 179.344C1075.18 179.461 1075.61 179.602 1075.95 179.766C1076.28 179.93 1076.53 180.131 1076.7 180.369C1076.86 180.607 1076.94 180.896 1076.94 181.236C1076.94 181.514 1076.88 181.768 1076.77 181.998C1076.65 182.229 1076.49 182.428 1076.27 182.596C1076.05 182.76 1075.79 182.889 1075.49 182.982C1075.2 183.072 1074.86 183.117 1074.49 183.117C1073.93 183.117 1073.46 183.018 1073.07 182.818C1072.69 182.619 1072.39 182.361 1072.2 182.045C1072 181.729 1071.9 181.395 1071.9 181.043H1072.99C1073 181.34 1073.09 181.576 1073.24 181.752C1073.4 181.924 1073.59 182.047 1073.82 182.121C1074.04 182.191 1074.27 182.227 1074.49 182.227C1074.79 182.227 1075.04 182.188 1075.24 182.109C1075.44 182.031 1075.59 181.924 1075.7 181.787C1075.8 181.65 1075.86 181.494 1075.86 181.318ZM1078.08 179.9V179.766C1078.08 179.309 1078.14 178.885 1078.28 178.494C1078.41 178.1 1078.6 177.758 1078.85 177.469C1079.1 177.176 1079.4 176.949 1079.76 176.789C1080.12 176.625 1080.51 176.543 1080.95 176.543C1081.4 176.543 1081.8 176.625 1082.16 176.789C1082.52 176.949 1082.82 177.176 1083.07 177.469C1083.32 177.758 1083.52 178.1 1083.65 178.494C1083.78 178.885 1083.85 179.309 1083.85 179.766V179.9C1083.85 180.357 1083.78 180.781 1083.65 181.172C1083.52 181.562 1083.32 181.904 1083.07 182.197C1082.82 182.486 1082.52 182.713 1082.16 182.877C1081.81 183.037 1081.41 183.117 1080.97 183.117C1080.52 183.117 1080.12 183.037 1079.77 182.877C1079.41 182.713 1079.11 182.486 1078.85 182.197C1078.6 181.904 1078.41 181.562 1078.28 181.172C1078.14 180.781 1078.08 180.357 1078.08 179.9ZM1079.16 179.766V179.9C1079.16 180.217 1079.2 180.516 1079.27 180.797C1079.35 181.074 1079.46 181.32 1079.61 181.535C1079.76 181.75 1079.95 181.92 1080.18 182.045C1080.4 182.166 1080.67 182.227 1080.97 182.227C1081.26 182.227 1081.52 182.166 1081.75 182.045C1081.97 181.92 1082.16 181.75 1082.31 181.535C1082.46 181.32 1082.57 181.074 1082.64 180.797C1082.72 180.516 1082.76 180.217 1082.76 179.9V179.766C1082.76 179.453 1082.72 179.158 1082.64 178.881C1082.57 178.6 1082.45 178.352 1082.3 178.137C1082.15 177.918 1081.97 177.746 1081.74 177.621C1081.52 177.496 1081.26 177.434 1080.95 177.434C1080.66 177.434 1080.4 177.496 1080.17 177.621C1079.95 177.746 1079.76 177.918 1079.61 178.137C1079.46 178.352 1079.35 178.6 1079.27 178.881C1079.2 179.158 1079.16 179.453 1079.16 179.766ZM1086.39 174V183H1085.3V174H1086.39ZM1089.3 174V183H1088.21V174H1089.3ZM1093.68 183.117C1093.23 183.117 1092.83 183.043 1092.47 182.895C1092.12 182.742 1091.81 182.529 1091.55 182.256C1091.3 181.982 1091.11 181.658 1090.97 181.283C1090.83 180.908 1090.76 180.498 1090.76 180.053V179.807C1090.76 179.291 1090.84 178.832 1090.99 178.43C1091.14 178.023 1091.35 177.68 1091.61 177.398C1091.87 177.117 1092.17 176.904 1092.5 176.76C1092.84 176.615 1093.18 176.543 1093.54 176.543C1093.99 176.543 1094.38 176.621 1094.71 176.777C1095.04 176.934 1095.31 177.152 1095.52 177.434C1095.73 177.711 1095.89 178.039 1095.99 178.418C1096.09 178.793 1096.14 179.203 1096.14 179.648V180.135H1091.41V179.25H1095.06V179.168C1095.04 178.887 1094.98 178.613 1094.88 178.348C1094.79 178.082 1094.63 177.863 1094.41 177.691C1094.2 177.52 1093.91 177.434 1093.54 177.434C1093.29 177.434 1093.06 177.486 1092.86 177.592C1092.65 177.693 1092.47 177.846 1092.32 178.049C1092.17 178.252 1092.06 178.5 1091.98 178.793C1091.89 179.086 1091.85 179.424 1091.85 179.807V180.053C1091.85 180.354 1091.89 180.637 1091.98 180.902C1092.06 181.164 1092.19 181.395 1092.35 181.594C1092.51 181.793 1092.71 181.949 1092.94 182.062C1093.17 182.176 1093.44 182.232 1093.73 182.232C1094.12 182.232 1094.44 182.154 1094.71 181.998C1094.97 181.842 1095.2 181.633 1095.4 181.371L1096.06 181.893C1095.92 182.1 1095.75 182.297 1095.54 182.484C1095.33 182.672 1095.07 182.824 1094.76 182.941C1094.45 183.059 1094.09 183.117 1093.68 183.117ZM1098.49 177.656V183H1097.41V176.66H1098.46L1098.49 177.656ZM1100.47 176.625L1100.47 177.633C1100.38 177.613 1100.29 177.602 1100.21 177.598C1100.13 177.59 1100.04 177.586 1099.94 177.586C1099.69 177.586 1099.47 177.625 1099.28 177.703C1099.09 177.781 1098.92 177.891 1098.79 178.031C1098.66 178.172 1098.55 178.34 1098.47 178.535C1098.4 178.727 1098.35 178.938 1098.33 179.168L1098.02 179.344C1098.02 178.961 1098.06 178.602 1098.13 178.266C1098.21 177.93 1098.33 177.633 1098.49 177.375C1098.65 177.113 1098.86 176.91 1099.1 176.766C1099.35 176.617 1099.65 176.543 1099.99 176.543C1100.07 176.543 1100.16 176.553 1100.26 176.572C1100.36 176.588 1100.43 176.605 1100.47 176.625ZM1100.77 182.426C1100.77 182.242 1100.82 182.088 1100.94 181.963C1101.05 181.834 1101.22 181.77 1101.44 181.77C1101.66 181.77 1101.82 181.834 1101.94 181.963C1102.05 182.088 1102.11 182.242 1102.11 182.426C1102.11 182.605 1102.05 182.758 1101.94 182.883C1101.82 183.008 1101.66 183.07 1101.44 183.07C1101.22 183.07 1101.05 183.008 1100.94 182.883C1100.82 182.758 1100.77 182.605 1100.77 182.426ZM1106.45 182.227C1106.71 182.227 1106.95 182.174 1107.16 182.068C1107.38 181.963 1107.56 181.818 1107.7 181.635C1107.84 181.447 1107.92 181.234 1107.94 180.996H1108.97C1108.95 181.371 1108.83 181.721 1108.59 182.045C1108.36 182.365 1108.06 182.625 1107.69 182.824C1107.31 183.02 1106.9 183.117 1106.45 183.117C1105.97 183.117 1105.56 183.033 1105.2 182.865C1104.85 182.697 1104.56 182.467 1104.32 182.174C1104.09 181.881 1103.92 181.545 1103.8 181.166C1103.69 180.783 1103.63 180.379 1103.63 179.953V179.707C1103.63 179.281 1103.69 178.879 1103.8 178.5C1103.92 178.117 1104.09 177.779 1104.32 177.486C1104.56 177.193 1104.85 176.963 1105.2 176.795C1105.56 176.627 1105.97 176.543 1106.45 176.543C1106.95 176.543 1107.38 176.645 1107.75 176.848C1108.12 177.047 1108.41 177.32 1108.62 177.668C1108.84 178.012 1108.95 178.402 1108.97 178.84H1107.94C1107.92 178.578 1107.85 178.342 1107.72 178.131C1107.6 177.92 1107.42 177.752 1107.2 177.627C1106.99 177.498 1106.74 177.434 1106.45 177.434C1106.12 177.434 1105.84 177.5 1105.61 177.633C1105.39 177.762 1105.21 177.938 1105.08 178.16C1104.95 178.379 1104.86 178.623 1104.8 178.893C1104.74 179.158 1104.71 179.43 1104.71 179.707V179.953C1104.71 180.23 1104.74 180.504 1104.8 180.773C1104.85 181.043 1104.94 181.287 1105.07 181.506C1105.2 181.725 1105.38 181.9 1105.61 182.033C1105.83 182.162 1106.11 182.227 1106.45 182.227ZM1109.91 179.9V179.766C1109.91 179.309 1109.97 178.885 1110.11 178.494C1110.24 178.1 1110.43 177.758 1110.68 177.469C1110.93 177.176 1111.23 176.949 1111.59 176.789C1111.94 176.625 1112.34 176.543 1112.78 176.543C1113.23 176.543 1113.63 176.625 1113.98 176.789C1114.34 176.949 1114.65 177.176 1114.9 177.469C1115.15 177.758 1115.35 178.1 1115.48 178.494C1115.61 178.885 1115.68 179.309 1115.68 179.766V179.9C1115.68 180.357 1115.61 180.781 1115.48 181.172C1115.35 181.562 1115.15 181.904 1114.9 182.197C1114.65 182.486 1114.35 182.713 1113.99 182.877C1113.64 183.037 1113.24 183.117 1112.79 183.117C1112.35 183.117 1111.95 183.037 1111.59 182.877C1111.24 182.713 1110.93 182.486 1110.68 182.197C1110.43 181.904 1110.24 181.562 1110.11 181.172C1109.97 180.781 1109.91 180.357 1109.91 179.9ZM1110.99 179.766V179.9C1110.99 180.217 1111.03 180.516 1111.1 180.797C1111.18 181.074 1111.29 181.32 1111.44 181.535C1111.59 181.75 1111.78 181.92 1112 182.045C1112.23 182.166 1112.49 182.227 1112.79 182.227C1113.09 182.227 1113.35 182.166 1113.57 182.045C1113.8 181.92 1113.99 181.75 1114.14 181.535C1114.29 181.32 1114.4 181.074 1114.47 180.797C1114.55 180.516 1114.59 180.217 1114.59 179.9V179.766C1114.59 179.453 1114.55 179.158 1114.47 178.881C1114.4 178.6 1114.28 178.352 1114.13 178.137C1113.98 177.918 1113.79 177.746 1113.57 177.621C1113.35 177.496 1113.08 177.434 1112.78 177.434C1112.49 177.434 1112.22 177.496 1112 177.621C1111.78 177.746 1111.59 177.918 1111.44 178.137C1111.29 178.352 1111.18 178.6 1111.1 178.881C1111.03 179.158 1110.99 179.453 1110.99 179.766ZM1118.12 177.92V183H1117.03V176.66H1118.06L1118.12 177.92ZM1117.89 179.59L1117.39 179.572C1117.39 179.139 1117.45 178.738 1117.56 178.371C1117.67 178 1117.83 177.678 1118.04 177.404C1118.26 177.131 1118.53 176.92 1118.85 176.771C1119.17 176.619 1119.54 176.543 1119.96 176.543C1120.26 176.543 1120.53 176.586 1120.78 176.672C1121.03 176.754 1121.25 176.885 1121.43 177.064C1121.62 177.244 1121.76 177.475 1121.86 177.756C1121.96 178.037 1122.01 178.377 1122.01 178.775V183H1120.93V178.828C1120.93 178.496 1120.87 178.23 1120.76 178.031C1120.65 177.832 1120.49 177.688 1120.29 177.598C1120.09 177.504 1119.85 177.457 1119.57 177.457C1119.25 177.457 1118.99 177.514 1118.77 177.627C1118.56 177.74 1118.38 177.896 1118.26 178.096C1118.13 178.295 1118.03 178.523 1117.97 178.781C1117.92 179.035 1117.89 179.305 1117.89 179.59ZM1122 178.992L1121.27 179.215C1121.28 178.867 1121.33 178.533 1121.44 178.213C1121.56 177.893 1121.72 177.607 1121.93 177.357C1122.14 177.107 1122.41 176.91 1122.72 176.766C1123.03 176.617 1123.39 176.543 1123.79 176.543C1124.13 176.543 1124.43 176.588 1124.7 176.678C1124.96 176.768 1125.18 176.906 1125.36 177.094C1125.55 177.277 1125.69 177.514 1125.78 177.803C1125.87 178.092 1125.92 178.436 1125.92 178.834V183H1124.83V178.822C1124.83 178.467 1124.77 178.191 1124.66 177.996C1124.55 177.797 1124.39 177.658 1124.19 177.58C1123.99 177.498 1123.75 177.457 1123.48 177.457C1123.24 177.457 1123.03 177.498 1122.84 177.58C1122.66 177.662 1122.51 177.775 1122.38 177.92C1122.26 178.061 1122.16 178.223 1122.09 178.406C1122.03 178.59 1122 178.785 1122 178.992Z" fill="#94A3B8"/>
<rect width="1520" height="813" transform="translate(323 199)" fill="#E0F2FE"/>
<path d="M323 200.084H577.606V1012H323V200.084Z" fill="#BFDBFE"/>
<path d="M353.553 277.048C353.553 269.864 360.392 264.04 368.829 264.04H531.777C540.214 264.04 547.054 269.864 547.054 277.048V277.048C547.054 284.232 540.214 290.056 531.777 290.056H368.829C360.392 290.056 353.553 284.232 353.553 277.048V277.048Z" fill="#93C5FD"/>
<path d="M414.658 368.104C414.658 364.512 418.078 361.6 422.297 361.6H549.599C553.818 361.6 557.238 364.512 557.238 368.104V368.104C557.238 371.696 553.818 374.608 549.599 374.608H422.297C418.078 374.608 414.658 371.696 414.658 368.104V368.104Z" fill="white"/>
<path d="M414.658 437.48C414.658 433.888 418.078 430.976 422.297 430.976H510.136C514.354 430.976 517.774 433.888 517.774 437.48V437.48C517.774 441.072 514.354 443.984 510.136 443.984H422.297C418.078 443.984 414.658 441.072 414.658 437.48V437.48Z" fill="white"/>
<path d="M414.658 506.856C414.658 503.264 418.078 500.352 422.297 500.352H531.777C535.995 500.352 539.415 503.264 539.415 506.856V506.856C539.415 510.448 535.995 513.36 531.777 513.36H422.297C418.078 513.36 414.658 510.448 414.658 506.856V506.856Z" fill="white"/>
<path fill-rule="evenodd" clip-rule="evenodd" d="M373.921 382.196C383.061 382.196 390.471 375.887 390.471 368.104C390.471 360.321 383.061 354.012 373.921 354.012C364.781 354.012 357.372 360.321 357.372 368.104C357.372 375.887 364.781 382.196 373.921 382.196ZM373.921 385.448C385.17 385.448 394.29 377.683 394.29 368.104C394.29 358.525 385.17 350.76 373.921 350.76C362.672 350.76 353.553 358.525 353.553 368.104C353.553 377.683 362.672 385.448 373.921 385.448Z" fill="#93C5FD"/>
<path d="M659.08 277.048C659.08 272.259 663.64 268.376 669.265 268.376H816.936C822.561 268.376 827.12 272.259 827.12 277.048V277.048C827.12 281.837 822.561 285.72 816.936 285.72H669.265C663.64 285.72 659.08 281.837 659.08 277.048V277.048Z" fill="#BFDBFE"/>
<path fill-rule="evenodd" clip-rule="evenodd" d="M929.6 626.704C929.674 620.521 935.443 615.256 942.857 615.256C947.408 615.256 950.755 617.174 952.891 618.98C953.486 619.483 953.996 619.985 954.424 620.447C954.851 619.985 955.362 619.483 955.957 618.98C958.093 617.174 961.44 615.256 965.991 615.256C973.405 615.256 979.173 620.521 979.248 626.704V626.704C979.389 638.763 968.01 647.106 956.572 653.717C955.939 654.084 955.19 654.28 954.424 654.28C953.658 654.28 952.909 654.084 952.276 653.717C940.837 647.106 929.457 638.763 929.6 626.704L929.6 626.704ZM956.129 624.117C956.13 624.116 956.131 624.115 956.132 624.113C956.135 624.107 956.143 624.096 956.153 624.079C956.175 624.044 956.21 623.989 956.26 623.914C956.36 623.766 956.517 623.544 956.729 623.274C957.155 622.731 957.796 622.007 958.647 621.288C960.358 619.842 962.794 618.508 965.991 618.508C971.17 618.508 975.374 622.214 975.429 626.736C975.548 636.898 965.964 644.358 954.426 651.027L954.424 651.028L954.422 651.027C942.883 644.358 933.299 636.898 933.419 626.737" fill="white"/>
<path d="M659.08 634.768C659.08 629.979 663.64 626.096 669.265 626.096H738.008C743.633 626.096 748.193 629.979 748.193 634.768V634.768C748.193 639.557 743.633 643.44 738.008 643.44H669.265C663.64 643.44 659.08 639.557 659.08 634.768V634.768Z" fill="#BFDBFE"/>
<path d="M768.561 634.768C768.561 629.979 773.121 626.096 778.745 626.096H893.318C898.943 626.096 903.502 629.979 903.502 634.768V634.768C903.502 639.557 898.943 643.44 893.318 643.44H778.745C773.121 643.44 768.561 639.557 768.561 634.768V634.768Z" fill="#BFDBFE"/>
<path d="M659.08 719.32C659.08 715.728 662.5 712.816 666.719 712.816H773.653C777.871 712.816 781.291 715.728 781.291 719.32V719.32C781.291 722.912 777.871 725.824 773.653 725.824H666.719C662.5 725.824 659.08 722.912 659.08 719.32V719.32Z" fill="white"/>
<path d="M659.08 749.672C659.08 746.08 662.5 743.168 666.719 743.168H830.939C835.158 743.168 838.577 746.08 838.577 749.672V749.672C838.577 753.264 835.158 756.176 830.939 756.176H666.719C662.5 756.176 659.08 753.264 659.08 749.672V749.672Z" fill="white"/>
<path d="M801.66 719.32C801.66 715.728 805.08 712.816 809.298 712.816H936.601C940.82 712.816 944.24 715.728 944.24 719.32V719.32C944.24 722.912 940.82 725.824 936.601 725.824H809.298C805.08 725.824 801.66 722.912 801.66 719.32V719.32Z" fill="white"/>
<path d="M659.08 361.6C659.08 358.008 662.5 355.096 666.719 355.096H773.653C777.871 355.096 781.291 358.008 781.291 361.6V361.6C781.291 365.192 777.871 368.104 773.653 368.104H666.719C662.5 368.104 659.08 365.192 659.08 361.6V361.6Z" fill="white"/>
<path d="M659.08 391.952C659.08 388.36 662.5 385.448 666.719 385.448H930.236C934.454 385.448 937.874 388.36 937.874 391.952V391.952C937.874 395.544 934.454 398.456 930.236 398.456H666.719C662.5 398.456 659.08 395.544 659.08 391.952V391.952Z" fill="white"/>
<path d="M801.66 361.6C801.66 358.008 805.08 355.096 809.298 355.096H1099.55C1103.77 355.096 1107.19 358.008 1107.19 361.6V361.6C1107.19 365.192 1103.77 368.104 1099.55 368.104H809.298C805.08 368.104 801.66 365.192 801.66 361.6V361.6Z" fill="white"/>
<path fill-rule="evenodd" clip-rule="evenodd" d="M391.744 423.388H358.645V451.572H391.744V423.388ZM354.826 420.136V454.824H395.563V420.136H354.826Z" fill="#60A5FA"/>
<g clip-path="url(#clip1_76_37)">
<rect x="1205.21" y="277.048" width="254.606" height="297.016" rx="20" fill="white"/>
<path d="M1374.81 574.32C1374.81 649.479 1303.85 710.407 1216.32 710.407C1128.78 710.407 1057.82 649.479 1057.82 574.32C1057.82 499.162 1128.78 438.233 1216.32 438.233C1303.85 438.233 1374.81 499.162 1374.81 574.32Z" fill="#FBBF24"/>
<path fill-rule="evenodd" clip-rule="evenodd" d="M1495.7 393.257L1412.88 322.739L1342.36 405.554L1425.18 476.073L1495.7 393.257ZM1412.35 316.072L1335.7 406.089L1425.71 482.739L1502.36 392.722L1412.35 316.072Z" fill="#BFDBFE"/>
</g>
<path d="M375.194 491.68L395.563 521.721H354.826L375.194 491.68Z" fill="#93C5FD"/>
<rect x="1500.55" y="277.048" width="254.606" height="218.968" rx="20" fill="white"/>
<path fill-rule="evenodd" clip-rule="evenodd" d="M1615.09 440.316C1640.47 440.316 1660.87 422.956 1660.87 401.723C1660.87 380.489 1640.47 363.129 1615.09 363.129C1589.7 363.129 1569.3 380.489 1569.3 401.723C1569.3 422.956 1589.7 440.316 1615.09 440.316ZM1615.09 451.156C1647.41 451.156 1673.6 429.024 1673.6 401.723C1673.6 374.421 1647.41 352.289 1615.09 352.289C1582.77 352.289 1556.57 374.421 1556.57 401.723C1556.57 429.024 1582.77 451.156 1615.09 451.156Z" fill="#BFDBFE"/>
<path d="M1641.68 386.076L1652.6 326.661L1698.6 365.825L1641.68 386.076Z" fill="#FBBF24"/>
<g clip-path="url(#clip2_76_37)">
<rect x="1205.21" y="608.752" width="254.606" height="331.704" rx="20" fill="white"/>
<path fill-rule="evenodd" clip-rule="evenodd" d="M1443.9 982.732C1515.27 982.732 1573.12 933.472 1573.12 872.706C1573.12 811.94 1515.27 762.68 1443.9 762.68C1372.54 762.68 1314.69 811.94 1314.69 872.706C1314.69 933.472 1372.54 982.732 1443.9 982.732ZM1443.9 993.572C1522.3 993.572 1585.85 939.458 1585.85 872.706C1585.85 805.954 1522.3 751.84 1443.9 751.84C1365.51 751.84 1301.96 805.954 1301.96 872.706C1301.96 939.458 1365.51 993.572 1443.9 993.572Z" fill="#FBBF24"/>
<path d="M1338.88 707.641C1338.88 728.132 1319.22 744.743 1294.96 744.743C1270.7 744.743 1251.04 728.132 1251.04 707.641C1251.04 687.151 1270.7 670.54 1294.96 670.54C1319.22 670.54 1338.88 687.151 1338.88 707.641Z" fill="#BFDBFE"/>
<path fill-rule="evenodd" clip-rule="evenodd" d="M1294.96 741.491C1317.14 741.491 1335.06 726.311 1335.06 707.641C1335.06 688.971 1317.14 673.792 1294.96 673.792C1272.78 673.792 1254.86 688.971 1254.86 707.641C1254.86 726.311 1272.78 741.491 1294.96 741.491ZM1294.96 744.743C1319.22 744.743 1338.88 728.132 1338.88 707.641C1338.88 687.151 1319.22 670.54 1294.96 670.54C1270.7 670.54 1251.04 687.151 1251.04 707.641C1251.04 728.132 1270.7 744.743 1294.96 744.743Z" fill="#BFDBFE"/>
</g>
<g clip-path="url(#clip3_76_37)">
<rect x="1500.55" y="530.704" width="254.606" height="370.728" rx="20" fill="white"/>
<path d="M1813.72 797.91C1813.72 824.551 1788.64 846.148 1757.71 846.148C1726.77 846.148 1701.69 824.551 1701.69 797.91C1701.69 771.269 1726.77 749.672 1757.71 749.672C1788.64 749.672 1813.72 771.269 1813.72 797.91Z" fill="white"/>
<path fill-rule="evenodd" clip-rule="evenodd" d="M1757.71 842.896C1786.49 842.896 1809.9 822.79 1809.9 797.91C1809.9 773.03 1786.49 752.924 1757.71 752.924C1728.92 752.924 1705.51 773.03 1705.51 797.91C1705.51 822.79 1728.92 842.896 1757.71 842.896ZM1757.71 846.148C1788.64 846.148 1813.72 824.551 1813.72 797.91C1813.72 771.269 1788.64 749.672 1757.71 749.672C1726.77 749.672 1701.69 771.269 1701.69 797.91C1701.69 824.551 1726.77 846.148 1757.71 846.148Z" fill="#BFDBFE"/>
<path d="M1711.88 661.326C1711.88 696.947 1678.25 725.824 1636.77 725.824C1595.29 725.824 1561.66 696.947 1561.66 661.326C1561.66 625.705 1595.29 596.828 1636.77 596.828C1678.25 596.828 1711.88 625.705 1711.88 661.326Z" fill="#BFDBFE"/>
<path d="M1547.66 785.444L1551.25 794.242L1562.19 794.432L1553.47 800.06L1556.64 808.976L1547.66 803.655L1538.68 808.976L1541.85 800.06L1533.13 794.432L1544.06 794.242L1547.66 785.444Z" fill="#FBBF24"/>
<path d="M1599.85 785.444L1603.44 794.242L1614.38 794.432L1605.66 800.06L1608.83 808.976L1599.85 803.655L1590.87 808.976L1594.04 800.06L1585.32 794.432L1596.26 794.242L1599.85 785.444Z" fill="#FBBF24"/>
<path d="M1652.05 785.444L1655.64 794.242L1666.57 794.432L1657.86 800.06L1661.02 808.976L1652.05 803.655L1643.07 808.976L1646.23 800.06L1637.52 794.432L1648.45 794.242L1652.05 785.444Z" fill="#FBBF24"/>
<path d="M1704.24 785.444L1707.83 794.242L1718.77 794.432L1710.05 800.06L1713.22 808.976L1704.24 803.655L1695.26 808.976L1698.43 800.06L1689.71 794.432L1700.65 794.242L1704.24 785.444Z" fill="#FBBF24"/>
<path d="M1756.43 785.444L1760.03 794.242L1770.96 794.432L1762.25 800.06L1765.41 808.976L1756.43 803.655L1747.45 808.976L1750.62 800.06L1741.91 794.432L1752.84 794.242L1756.43 785.444Z" fill="#FBBF24"/>
</g>
</g>
<rect x="325.5" y="160.5" width="1515" height="849" rx="17.5" stroke="white" stroke-width="5"/>
</g>
<defs>
<filter id="filter0_dd_76_37" x="303" y="148" width="1560" height="904" filterUnits="userSpaceOnUse" color-interpolation-filters="sRGB">
<feFlood flood-opacity="0" result="BackgroundImageFix"/>
<feColorMatrix in="SourceAlpha" type="matrix" values="0 0 0 0 0 0 0 0 0 0 0 0 0 0 0 0 0 0 127 0" result="hardAlpha"/>
<feOffset/>
<feGaussianBlur stdDeviation="5"/>
<feColorMatrix type="matrix" values="0 0 0 0 0 0 0 0 0 0 0 0 0 0 0 0 0 0 0.07 0"/>
<feBlend mode="normal" in2="BackgroundImageFix" result="effect1_dropShadow_76_37"/>
<feColorMatrix in="SourceAlpha" type="matrix" values="0 0 0 0 0 0 0 0 0 0 0 0 0 0 0 0 0 0 127 0" result="hardAlpha"/>
<feMorphology radius="5" operator="erode" in="SourceAlpha" result="effect2_dropShadow_76_37"/>
<feOffset dy="20"/>
<feGaussianBlur stdDeviation="12.5"/>
<feColorMatrix type="matrix" values="0 0 0 0 0 0 0 0 0 0 0 0 0 0 0 0 0 0 0.1 0"/>
<feBlend mode="normal" in2="effect1_dropShadow_76_37" result="effect2_dropShadow_76_37"/>
<feBlend mode="normal" in="SourceGraphic" in2="effect2_dropShadow_76_37" result="shape"/>
</filter>
<clipPath id="clip0_76_37">
<rect x="323" y="158" width="1520" height="854" rx="20" fill="white"/>
</clipPath>
<clipPath id="clip1_76_37">
<rect x="1205.21" y="277.048" width="254.606" height="297.016" rx="20" fill="white"/>
</clipPath>
<clipPath id="clip2_76_37">
<rect x="1205.21" y="608.752" width="254.606" height="331.704" rx="20" fill="white"/>
</clipPath>
<clipPath id="clip3_76_37">
<rect x="1500.55" y="530.704" width="254.606" height="370.728" rx="20" fill="white"/>
</clipPath>
</defs>
</svg>
