<svg width="340" height="573" viewBox="0 0 340 573" fill="none" xmlns="http://www.w3.org/2000/svg">
<path d="M313.793 495.37C213.748 553.132 85.8199 518.853 28.0587 418.808C-29.7026 318.763 4.57551 190.835 104.621 133.074L285.769 28.4874C385.815 -29.2739 513.742 5.00422 571.504 105.05C629.265 205.095 594.987 333.023 494.941 390.784L313.793 495.37Z" fill="#FBBF24"/>
<g filter="url(#filter0_dd_1_5404)">
<g clip-path="url(#clip0_1_5404)">
<path d="M38.5 41.4287H266.5V532.429H38.5V41.4287Z" fill="#E0F2FE"/>
<path d="M205.266 390.366C205.266 407.721 191.266 421.79 173.997 421.79C156.728 421.79 142.729 407.721 142.729 390.366C142.729 373.011 156.728 358.942 173.997 358.942C191.266 358.942 205.266 373.011 205.266 390.366Z" fill="white"/>
<path fill-rule="evenodd" clip-rule="evenodd" d="M173.997 419.826C190.187 419.826 203.311 406.636 203.311 390.366C203.311 374.096 190.187 360.906 173.997 360.906C157.807 360.906 144.683 374.096 144.683 390.366C144.683 406.636 157.807 419.826 173.997 419.826ZM173.997 421.79C191.266 421.79 205.266 407.721 205.266 390.366C205.266 373.011 191.266 358.942 173.997 358.942C156.728 358.942 142.729 373.011 142.729 390.366C142.729 407.721 156.728 421.79 173.997 421.79Z" fill="#BAE6FD"/>
<path d="M288.648 390.366C288.648 407.721 274.649 421.79 257.38 421.79C240.111 421.79 226.111 407.721 226.111 390.366C226.111 373.011 240.111 358.942 257.38 358.942C274.649 358.942 288.648 373.011 288.648 390.366Z" fill="#BAE6FD"/>
<path fill-rule="evenodd" clip-rule="evenodd" d="M257.38 419.826C273.57 419.826 286.694 406.636 286.694 390.366C286.694 374.096 273.57 360.906 257.38 360.906C241.19 360.906 228.066 374.096 228.066 390.366C228.066 406.636 241.19 419.826 257.38 419.826ZM257.38 421.79C274.649 421.79 288.648 407.721 288.648 390.366C288.648 373.011 274.649 358.942 257.38 358.942C240.111 358.942 226.111 373.011 226.111 390.366C226.111 407.721 240.111 421.79 257.38 421.79Z" fill="white"/>
<path d="M121.883 390.366C121.883 407.721 107.883 421.79 90.6143 421.79C73.3451 421.79 59.3457 407.721 59.3457 390.366C59.3457 373.011 73.3451 358.942 90.6143 358.942C107.883 358.942 121.883 373.011 121.883 390.366Z" fill="#FBBF24"/>
<path fill-rule="evenodd" clip-rule="evenodd" d="M90.6143 419.826C106.804 419.826 119.929 406.636 119.929 390.366C119.929 374.096 106.804 360.906 90.6143 360.906C74.4244 360.906 61.3 374.096 61.3 390.366C61.3 406.636 74.4244 419.826 90.6143 419.826ZM90.6143 421.79C107.883 421.79 121.883 407.721 121.883 390.366C121.883 373.011 107.883 358.942 90.6143 358.942C73.3451 358.942 59.3457 373.011 59.3457 390.366C59.3457 407.721 73.3451 421.79 90.6143 421.79Z" fill="white"/>
<path d="M59.3457 337.993C59.3457 335.1 61.6789 332.755 64.5571 332.755H110.157C113.035 332.755 115.369 335.1 115.369 337.993C115.369 340.885 113.035 343.23 110.157 343.23H64.5571C61.6789 343.23 59.3457 340.885 59.3457 337.993Z" fill="#BAE6FD"/>
<path d="M125.792 337.993C125.792 335.1 128.125 332.755 131.003 332.755H151.849C154.727 332.755 157.06 335.1 157.06 337.993C157.06 340.885 154.727 343.23 151.849 343.23H131.003C128.125 343.23 125.792 340.885 125.792 337.993Z" fill="#BAE6FD"/>
<path fill-rule="evenodd" clip-rule="evenodd" d="M217.317 229.685C217.355 225.951 220.307 222.771 224.101 222.771C226.43 222.771 228.143 223.93 229.236 225.02C229.54 225.324 229.801 225.627 230.02 225.906C230.239 225.627 230.5 225.324 230.804 225.02C231.898 223.93 233.61 222.771 235.939 222.771C239.733 222.771 242.685 225.951 242.723 229.685V229.685C242.795 236.968 236.972 242.006 231.119 245.999C230.795 246.221 230.412 246.339 230.02 246.339C229.628 246.339 229.245 246.221 228.921 245.999C223.067 242.006 217.244 236.968 217.317 229.685L217.317 229.685ZM230.893 228.123C230.893 228.122 230.894 228.122 230.894 228.121C230.896 228.117 230.9 228.11 230.905 228.1C230.916 228.079 230.934 228.045 230.96 228C231.011 227.91 231.091 227.777 231.2 227.614C231.418 227.286 231.746 226.849 232.181 226.414C233.057 225.541 234.303 224.735 235.939 224.735C238.589 224.735 240.741 226.974 240.769 229.705C240.83 235.842 235.925 240.347 230.021 244.375L230.02 244.375L230.019 244.375C224.114 240.347 219.21 235.842 219.272 229.705" fill="white"/>
<path d="M59.3457 234.555C59.3457 231.663 61.6789 229.318 64.5571 229.318H99.7343C102.613 229.318 104.946 231.663 104.946 234.555C104.946 237.448 102.613 239.793 99.7343 239.793H64.5571C61.6789 239.793 59.3457 237.448 59.3457 234.555Z" fill="#BAE6FD"/>
<path d="M115.369 234.555C115.369 231.663 117.702 229.318 120.58 229.318H179.209C182.087 229.318 184.42 231.663 184.42 234.555C184.42 237.448 182.087 239.793 179.209 239.793H120.58C117.702 239.793 115.369 237.448 115.369 234.555Z" fill="#BAE6FD"/>
<path d="M59.3457 259.433C59.3457 257.263 61.0956 255.505 63.2543 255.505H117.974C120.133 255.505 121.883 257.263 121.883 259.433C121.883 261.602 120.133 263.361 117.974 263.361H63.2543C61.0956 263.361 59.3457 261.602 59.3457 259.433Z" fill="white"/>
<path d="M59.3457 277.763C59.3457 275.594 61.0956 273.835 63.2543 273.835H147.289C149.447 273.835 151.197 275.594 151.197 277.763C151.197 279.933 149.447 281.691 147.289 281.691H63.2543C61.0956 281.691 59.3457 279.933 59.3457 277.763Z" fill="white"/>
<path d="M132.306 259.433C132.306 257.263 134.056 255.505 136.214 255.505H201.357C203.516 255.505 205.266 257.263 205.266 259.433C205.266 261.602 203.516 263.361 201.357 263.361H136.214C134.056 263.361 132.306 261.602 132.306 259.433Z" fill="white"/>
<path d="M59.3457 82.6726C59.3457 75.4414 65.1788 69.5793 72.3743 69.5793H232.626C239.821 69.5793 245.655 75.4414 245.655 82.6726V184.8C245.655 192.032 239.821 197.894 232.626 197.894H72.3743C65.1788 197.894 59.3457 192.032 59.3457 184.8V82.6726Z" fill="white"/>
<mask id="mask0_1_5404" style="mask-type:alpha" maskUnits="userSpaceOnUse" x="59" y="69" width="187" height="129">
<path d="M59.3457 82.6726C59.3457 75.4414 65.1788 69.5793 72.3743 69.5793H232.626C239.821 69.5793 245.655 75.4414 245.655 82.6726V184.8C245.655 192.032 239.821 197.894 232.626 197.894H72.3743C65.1788 197.894 59.3457 192.032 59.3457 184.8V82.6726Z" fill="white"/>
</mask>
<g mask="url(#mask0_1_5404)">
<path d="M59.3457 69.5793H173.997L59.3457 179.563V69.5793Z" fill="#BAE6FD"/>
<path d="M275.62 184.801C275.62 207.218 257.537 225.39 235.231 225.39C212.925 225.39 194.843 207.218 194.843 184.801C194.843 162.384 212.925 144.211 235.231 144.211C257.537 144.211 275.62 162.384 275.62 184.801Z" fill="#FBBF24"/>
<path d="M235.231 150.103C235.231 172.882 216.857 191.347 194.191 191.347C171.526 191.347 153.151 172.882 153.151 150.103C153.151 127.325 171.526 108.859 194.191 108.859C216.857 108.859 235.231 127.325 235.231 150.103Z" fill="white"/>
<path fill-rule="evenodd" clip-rule="evenodd" d="M194.191 184.801C213.259 184.801 228.717 169.266 228.717 150.103C228.717 130.941 213.259 115.406 194.191 115.406C175.123 115.406 159.666 130.941 159.666 150.103C159.666 169.266 175.123 184.801 194.191 184.801ZM194.191 191.347C216.857 191.347 235.231 172.882 235.231 150.103C235.231 127.325 216.857 108.859 194.191 108.859C171.526 108.859 153.151 127.325 153.151 150.103C153.151 172.882 171.526 191.347 194.191 191.347Z" fill="#E0F2FE"/>
</g>
<mask id="path-25-inside-1_1_5404" fill="white">
<path d="M38.5 469.581H266.5V532.429H38.5V469.581Z"/>
</mask>
<path d="M38.5 472.581H266.5V466.581H38.5V472.581Z" fill="white" mask="url(#path-25-inside-1_1_5404)"/>
<path fill-rule="evenodd" clip-rule="evenodd" d="M70.1333 488.239C70.5959 488.258 70.9821 488.6 71.0582 489.059L74.2541 508.33L76.9719 498.77C77.0896 498.356 77.4619 498.068 77.8902 498.059C78.3186 498.049 78.7029 498.321 78.8384 498.73L80.57 503.95H83.7743C84.3139 503.95 84.7514 504.39 84.7514 504.932C84.7514 505.475 84.3139 505.914 83.7743 505.914H79.8657C79.4451 505.914 79.0717 505.644 78.9387 505.243L77.9833 502.362L74.9424 513.058C74.8169 513.5 74.4037 513.795 73.9476 513.769C73.4915 513.743 73.1141 513.403 73.039 512.95L69.9028 494.039L67.1337 505.17C67.025 505.608 66.6341 505.914 66.1858 505.914H62.2772C61.7375 505.914 61.3 505.475 61.3 504.932C61.3 504.39 61.7375 503.95 62.2772 503.95H65.4228L69.1464 488.982C69.2586 488.531 69.6707 488.221 70.1333 488.239Z" fill="white"/>
<path fill-rule="evenodd" clip-rule="evenodd" d="M85.7285 503.95C85.1889 503.95 84.7514 504.39 84.7514 504.932C84.7514 505.475 85.1889 505.914 85.7285 505.914C86.2682 505.914 86.7057 505.475 86.7057 504.932C86.7057 504.39 86.2682 503.95 85.7285 503.95ZM82.7971 504.932C82.7971 503.305 84.1096 501.986 85.7285 501.986C87.3475 501.986 88.66 503.305 88.66 504.932C88.66 506.559 87.3475 507.878 85.7285 507.878C84.1096 507.878 82.7971 506.559 82.7971 504.932Z" fill="white"/>
<path fill-rule="evenodd" clip-rule="evenodd" d="M144.495 490.029C146.233 488.861 148.277 488.238 150.368 488.238V489.22V488.238C153.172 488.238 155.86 489.358 157.843 491.35C159.825 493.342 160.939 496.044 160.939 498.862V498.862C160.939 500.963 160.319 503.017 159.157 504.764C157.996 506.511 156.345 507.872 154.413 508.676C152.482 509.48 150.356 509.691 148.306 509.281C146.255 508.871 144.372 507.859 142.893 506.374C141.415 504.888 140.408 502.995 140 500.934C139.592 498.873 139.802 496.737 140.602 494.796C141.402 492.855 142.757 491.196 144.495 490.029ZM150.368 490.202C148.664 490.202 146.998 490.71 145.581 491.662C144.164 492.613 143.059 493.966 142.407 495.548C141.755 497.13 141.584 498.871 141.917 500.551C142.249 502.231 143.07 503.774 144.275 504.985C145.48 506.196 147.016 507.021 148.687 507.355C150.358 507.689 152.091 507.517 153.665 506.862C155.24 506.206 156.586 505.097 157.532 503.673C158.479 502.249 158.985 500.574 158.985 498.862" fill="white"/>
<path fill-rule="evenodd" clip-rule="evenodd" d="M156.835 505.361C157.216 504.977 157.835 504.977 158.216 505.361L164.917 512.094C165.298 512.478 165.298 513.1 164.917 513.483C164.535 513.867 163.916 513.867 163.535 513.483L156.835 506.75C156.453 506.366 156.453 505.744 156.835 505.361Z" fill="white"/>
<path fill-rule="evenodd" clip-rule="evenodd" d="M218.294 495.112C218.294 494.57 218.732 494.13 219.272 494.13H240.769C241.308 494.13 241.746 494.57 241.746 495.112C241.746 495.655 241.308 496.094 240.769 496.094H219.272C218.732 496.094 218.294 495.655 218.294 495.112Z" fill="white"/>
<path fill-rule="evenodd" clip-rule="evenodd" d="M218.294 501.004C218.294 500.462 218.732 500.022 219.272 500.022H240.769C241.308 500.022 241.746 500.462 241.746 501.004C241.746 501.547 241.308 501.986 240.769 501.986H219.272C218.732 501.986 218.294 501.547 218.294 501.004Z" fill="white"/>
<path fill-rule="evenodd" clip-rule="evenodd" d="M218.294 506.897C218.294 506.354 218.732 505.915 219.272 505.915H240.769C241.308 505.915 241.746 506.354 241.746 506.897C241.746 507.439 241.308 507.879 240.769 507.879H219.272C218.732 507.879 218.294 507.439 218.294 506.897Z" fill="white"/>
</g>
<rect x="41" y="43.9287" width="223" height="486" rx="17.5" stroke="white" stroke-width="5"/>
</g>
<path d="M289.5 390.499C289.5 407.896 275.397 421.999 258 421.999C240.603 421.999 226.5 407.896 226.5 390.499C226.5 373.102 240.603 358.999 258 358.999C275.397 358.999 289.5 373.102 289.5 390.499Z" fill="#BAE6FD"/>
<path fill-rule="evenodd" clip-rule="evenodd" d="M258 420.03C274.31 420.03 287.531 406.809 287.531 390.499C287.531 374.189 274.31 360.968 258 360.968C241.69 360.968 228.469 374.189 228.469 390.499C228.469 406.809 241.69 420.03 258 420.03ZM258 421.999C275.397 421.999 289.5 407.896 289.5 390.499C289.5 373.102 275.397 358.999 258 358.999C240.603 358.999 226.5 373.102 226.5 390.499C226.5 407.896 240.603 421.999 258 421.999Z" fill="white"/>
<defs>
<filter id="filter0_dd_1_5404" x="18.5" y="31.4287" width="268" height="541" filterUnits="userSpaceOnUse" color-interpolation-filters="sRGB">
<feFlood flood-opacity="0" result="BackgroundImageFix"/>
<feColorMatrix in="SourceAlpha" type="matrix" values="0 0 0 0 0 0 0 0 0 0 0 0 0 0 0 0 0 0 127 0" result="hardAlpha"/>
<feOffset/>
<feGaussianBlur stdDeviation="5"/>
<feColorMatrix type="matrix" values="0 0 0 0 0 0 0 0 0 0 0 0 0 0 0 0 0 0 0.07 0"/>
<feBlend mode="normal" in2="BackgroundImageFix" result="effect1_dropShadow_1_5404"/>
<feColorMatrix in="SourceAlpha" type="matrix" values="0 0 0 0 0 0 0 0 0 0 0 0 0 0 0 0 0 0 127 0" result="hardAlpha"/>
<feMorphology radius="5" operator="erode" in="SourceAlpha" result="effect2_dropShadow_1_5404"/>
<feOffset dy="20"/>
<feGaussianBlur stdDeviation="12.5"/>
<feColorMatrix type="matrix" values="0 0 0 0 0 0 0 0 0 0 0 0 0 0 0 0 0 0 0.1 0"/>
<feBlend mode="normal" in2="effect1_dropShadow_1_5404" result="effect2_dropShadow_1_5404"/>
<feBlend mode="normal" in="SourceGraphic" in2="effect2_dropShadow_1_5404" result="shape"/>
</filter>
<clipPath id="clip0_1_5404">
<rect x="38.5" y="41.4287" width="228" height="491" rx="20" fill="white"/>
</clipPath>
</defs>
</svg>
