<svg width="81" height="25" viewBox="0 0 81 25" fill="none" xmlns="http://www.w3.org/2000/svg">
<path d="M10.8906 19.3281C10.8906 19.0052 10.7969 18.7135 10.6094 18.4531C10.4219 18.1927 10.0729 17.9531 9.5625 17.7344C9.0625 17.5052 8.33854 17.2969 7.39062 17.1094C6.53646 16.9219 5.73958 16.6875 5 16.4062C4.27083 16.1146 3.63542 15.7656 3.09375 15.3594C2.5625 14.9531 2.14583 14.474 1.84375 13.9219C1.54167 13.3594 1.39062 12.7188 1.39062 12C1.39062 11.2917 1.54167 10.625 1.84375 10C2.15625 9.375 2.59896 8.82292 3.17188 8.34375C3.75521 7.85417 4.46354 7.47396 5.29688 7.20312C6.14062 6.92188 7.08854 6.78125 8.14062 6.78125C9.60938 6.78125 10.8698 7.01562 11.9219 7.48438C12.9844 7.95312 13.7969 8.59896 14.3594 9.42188C14.9323 10.2344 15.2188 11.1615 15.2188 12.2031H10.7188C10.7188 11.7656 10.625 11.375 10.4375 11.0312C10.2604 10.6771 9.97917 10.401 9.59375 10.2031C9.21875 9.99479 8.72917 9.89062 8.125 9.89062C7.625 9.89062 7.19271 9.97917 6.82812 10.1562C6.46354 10.3229 6.18229 10.5521 5.98438 10.8438C5.79688 11.125 5.70312 11.4375 5.70312 11.7812C5.70312 12.0417 5.75521 12.276 5.85938 12.4844C5.97396 12.6823 6.15625 12.8646 6.40625 13.0312C6.65625 13.1979 6.97917 13.3542 7.375 13.5C7.78125 13.6354 8.28125 13.7604 8.875 13.875C10.0938 14.125 11.1823 14.4531 12.1406 14.8594C13.099 15.2552 13.8594 15.7969 14.4219 16.4844C14.9844 17.1615 15.2656 18.0521 15.2656 19.1562C15.2656 19.9062 15.099 20.5938 14.7656 21.2188C14.4323 21.8438 13.9531 22.3906 13.3281 22.8594C12.7031 23.3177 11.9531 23.6771 11.0781 23.9375C10.2135 24.1875 9.23958 24.3125 8.15625 24.3125C6.58333 24.3125 5.25 24.0312 4.15625 23.4688C3.07292 22.9062 2.25 22.1927 1.6875 21.3281C1.13542 20.4531 0.859375 19.5573 0.859375 18.6406H5.125C5.14583 19.2552 5.30208 19.75 5.59375 20.125C5.89583 20.5 6.27604 20.7708 6.73438 20.9375C7.20312 21.1042 7.70833 21.1875 8.25 21.1875C8.83333 21.1875 9.31771 21.1094 9.70312 20.9531C10.0885 20.7865 10.3802 20.5677 10.5781 20.2969C10.7865 20.0156 10.8906 19.6927 10.8906 19.3281ZM17.4688 15.7188V15.3906C17.4688 14.151 17.6458 13.0104 18 11.9688C18.3542 10.9167 18.8698 10.0052 19.5469 9.23438C20.224 8.46354 21.0573 7.86458 22.0469 7.4375C23.0365 7 24.1719 6.78125 25.4531 6.78125C26.7344 6.78125 27.875 7 28.875 7.4375C29.875 7.86458 30.7135 8.46354 31.3906 9.23438C32.0781 10.0052 32.599 10.9167 32.9531 11.9688C33.3073 13.0104 33.4844 14.151 33.4844 15.3906V15.7188C33.4844 16.9479 33.3073 18.0885 32.9531 19.1406C32.599 20.1823 32.0781 21.0938 31.3906 21.875C30.7135 22.6458 29.8802 23.2448 28.8906 23.6719C27.901 24.099 26.7656 24.3125 25.4844 24.3125C24.2031 24.3125 23.0625 24.099 22.0625 23.6719C21.0729 23.2448 20.2344 22.6458 19.5469 21.875C18.8698 21.0938 18.3542 20.1823 18 19.1406C17.6458 18.0885 17.4688 16.9479 17.4688 15.7188ZM21.9688 15.3906V15.7188C21.9688 16.4271 22.0312 17.0885 22.1562 17.7031C22.2812 18.3177 22.4792 18.8594 22.75 19.3281C23.0312 19.7865 23.3958 20.1458 23.8438 20.4062C24.2917 20.6667 24.8385 20.7969 25.4844 20.7969C26.1094 20.7969 26.6458 20.6667 27.0938 20.4062C27.5417 20.1458 27.901 19.7865 28.1719 19.3281C28.4427 18.8594 28.6406 18.3177 28.7656 17.7031C28.901 17.0885 28.9688 16.4271 28.9688 15.7188V15.3906C28.9688 14.7031 28.901 14.0573 28.7656 13.4531C28.6406 12.8385 28.4375 12.2969 28.1562 11.8281C27.8854 11.349 27.526 10.974 27.0781 10.7031C26.6302 10.4323 26.0885 10.2969 25.4531 10.2969C24.8177 10.2969 24.276 10.4323 23.8281 10.7031C23.3906 10.974 23.0312 11.349 22.75 11.8281C22.4792 12.2969 22.2812 12.8385 22.1562 13.4531C22.0312 14.0573 21.9688 14.7031 21.9688 15.3906ZM41 0V24H36.4844V0H41ZM49.4688 0V24H44.9531V0H49.4688ZM60.9688 24.3125C59.6562 24.3125 58.4792 24.1042 57.4375 23.6875C56.3958 23.2604 55.5104 22.6719 54.7812 21.9219C54.0625 21.1719 53.5104 20.3021 53.125 19.3125C52.7396 18.3125 52.5469 17.25 52.5469 16.125V15.5C52.5469 14.2188 52.7292 13.0469 53.0938 11.9844C53.4583 10.9219 53.9792 10 54.6562 9.21875C55.3438 8.4375 56.1771 7.83854 57.1562 7.42188C58.1354 6.99479 59.2396 6.78125 60.4688 6.78125C61.6667 6.78125 62.7292 6.97917 63.6562 7.375C64.5833 7.77083 65.3594 8.33333 65.9844 9.0625C66.6198 9.79167 67.099 10.6667 67.4219 11.6875C67.7448 12.6979 67.9062 13.8229 67.9062 15.0625V16.9375H54.4688V13.9375H63.4844V13.5938C63.4844 12.9688 63.3698 12.4115 63.1406 11.9219C62.9219 11.4219 62.5885 11.026 62.1406 10.7344C61.6927 10.4427 61.1198 10.2969 60.4219 10.2969C59.8281 10.2969 59.3177 10.4271 58.8906 10.6875C58.4635 10.9479 58.1146 11.3125 57.8438 11.7812C57.5833 12.25 57.3854 12.8021 57.25 13.4375C57.125 14.0625 57.0625 14.75 57.0625 15.5V16.125C57.0625 16.8021 57.1562 17.4271 57.3438 18C57.5417 18.5729 57.8177 19.0677 58.1719 19.4844C58.5365 19.901 58.974 20.224 59.4844 20.4531C60.0052 20.6823 60.5938 20.7969 61.25 20.7969C62.0625 20.7969 62.8177 20.6406 63.5156 20.3281C64.224 20.0052 64.8333 19.5208 65.3438 18.875L67.5312 21.25C67.1771 21.7604 66.6927 22.25 66.0781 22.7188C65.474 23.1875 64.7448 23.5729 63.8906 23.875C63.0365 24.1667 62.0625 24.3125 60.9688 24.3125ZM74.9688 10.7812V24H70.4688V7.09375H74.7031L74.9688 10.7812ZM80.0625 6.98438L79.9844 11.1562C79.7656 11.125 79.5 11.099 79.1875 11.0781C78.8854 11.0469 78.6094 11.0312 78.3594 11.0312C77.724 11.0312 77.1719 11.1146 76.7031 11.2812C76.2448 11.4375 75.8594 11.6719 75.5469 11.9844C75.2448 12.2969 75.0156 12.6771 74.8594 13.125C74.7135 13.5729 74.6302 14.0833 74.6094 14.6562L73.7031 14.375C73.7031 13.2812 73.8125 12.276 74.0312 11.3594C74.25 10.4323 74.5677 9.625 74.9844 8.9375C75.4115 8.25 75.9323 7.71875 76.5469 7.34375C77.1615 6.96875 77.8646 6.78125 78.6562 6.78125C78.9062 6.78125 79.1615 6.80208 79.4219 6.84375C79.6823 6.875 79.8958 6.92188 80.0625 6.98438Z" fill="#0F172A"/>
</svg>
